<svg width="355" height="65" viewBox="0 0 355 65" fill="none" xmlns="http://www.w3.org/2000/svg">
<path d="M190.96 3.2H208.52C211.853 3.2 214.867 3.77333 217.56 4.92C220.28 6.06666 222.44 7.82666 224.04 10.2C225.64 12.5467 226.44 15.5467 226.44 19.2C226.44 22.8267 225.64 25.88 224.04 28.36C222.44 30.84 220.28 32.72 217.56 34C214.867 35.2533 211.853 35.88 208.52 35.88H200.92V56H190.96V3.2ZM200.92 27.84H205.76C207.627 27.84 209.307 27.5733 210.8 27.04C212.32 26.48 213.533 25.5867 214.44 24.36C215.347 23.1333 215.8 21.4933 215.8 19.44C215.8 17.36 215.347 15.7333 214.44 14.56C213.533 13.36 212.32 12.5067 210.8 12C209.307 11.4667 207.627 11.2 205.76 11.2H200.92V27.84ZM235.322 56H225.162V23.16H235.322V28.48H235.122C235.309 27.84 235.816 27.0267 236.642 26.04C237.496 25.0533 238.669 24.1733 240.162 23.4C241.656 22.6 243.456 22.2 245.562 22.2C247.082 22.2 248.456 22.4267 249.682 22.88C250.936 23.3067 251.829 23.7333 252.363 24.16L248.362 32.48C248.016 32.0533 247.362 31.6133 246.402 31.16C245.469 30.7067 244.296 30.48 242.882 30.48C241.202 30.48 239.802 30.9467 238.682 31.88C237.562 32.7867 236.722 33.9067 236.162 35.24C235.602 36.5467 235.322 37.7733 235.322 38.92V56ZM265.094 56.96C261.6 56.96 258.48 56.2133 255.734 54.72C253.014 53.2267 250.88 51.1867 249.334 48.6C247.787 45.9867 247.014 43.0133 247.014 39.68C247.014 36.3467 247.787 33.3733 249.334 30.76C250.88 28.12 253.014 26.04 255.734 24.52C258.48 22.9733 261.6 22.2 265.094 22.2C268.614 22.2 271.72 22.9733 274.414 24.52C277.107 26.04 279.214 28.12 280.734 30.76C282.254 33.3733 283.014 36.3467 283.014 39.68C283.014 43.0133 282.254 45.9867 280.734 48.6C279.214 51.1867 277.107 53.2267 274.414 54.72C271.72 56.2133 268.614 56.96 265.094 56.96ZM265.094 48.52C266.774 48.52 268.227 48.1467 269.454 47.4C270.707 46.6267 271.667 45.5733 272.334 44.24C273.027 42.88 273.374 41.3467 273.374 39.64C273.374 37.9333 273.027 36.4 272.334 35.04C271.667 33.68 270.707 32.6133 269.454 31.84C268.227 31.04 266.774 30.64 265.094 30.64C263.414 30.64 261.947 31.04 260.694 31.84C259.467 32.6133 258.507 33.68 257.814 35.04C257.12 36.4 256.774 37.9333 256.774 39.64C256.774 41.3467 257.12 42.88 257.814 44.24C258.507 45.5733 259.467 46.6267 260.694 47.4C261.947 48.1467 263.414 48.52 265.094 48.52ZM299.553 56.96C296.06 56.96 292.94 56.2133 290.193 54.72C287.473 53.2267 285.34 51.1867 283.793 48.6C282.246 45.9867 281.473 43.0133 281.473 39.68C281.473 36.3467 282.246 33.3733 283.793 30.76C285.34 28.12 287.473 26.04 290.193 24.52C292.94 22.9733 296.06 22.2 299.553 22.2C303.073 22.2 306.18 22.9733 308.873 24.52C311.566 26.04 313.673 28.12 315.193 30.76C316.713 33.3733 317.473 36.3467 317.473 39.68C317.473 43.0133 316.713 45.9867 315.193 48.6C313.673 51.1867 311.566 53.2267 308.873 54.72C306.18 56.2133 303.073 56.96 299.553 56.96ZM299.553 48.52C301.233 48.52 302.686 48.1467 303.913 47.4C305.166 46.6267 306.126 45.5733 306.793 44.24C307.486 42.88 307.833 41.3467 307.833 39.64C307.833 37.9333 307.486 36.4 306.793 35.04C306.126 33.68 305.166 32.6133 303.913 31.84C302.686 31.04 301.233 30.64 299.553 30.64C297.873 30.64 296.406 31.04 295.153 31.84C293.926 32.6133 292.966 33.68 292.273 35.04C291.58 36.4 291.233 37.9333 291.233 39.64C291.233 41.3467 291.58 42.88 292.273 44.24C292.966 45.5733 293.926 46.6267 295.153 47.4C296.406 48.1467 297.873 48.52 299.553 48.52ZM314.86 23.16H320.78V14.24C320.78 10.9867 321.42 8.32 322.7 6.24C323.98 4.13333 325.633 2.57333 327.66 1.56C329.687 0.519997 331.78 -3.8147e-06 333.94 -3.8147e-06C336.58 -3.8147e-06 338.607 0.359997 340.02 1.08C341.433 1.8 342.3 2.32 342.62 2.64L338.7 10.16C338.567 9.97333 338.193 9.68 337.58 9.28C336.993 8.85333 336.207 8.64 335.22 8.64C334.527 8.64 333.847 8.81333 333.18 9.16C332.513 9.50666 331.967 10.1467 331.54 11.08C331.113 12.0133 330.9 13.3867 330.9 15.2V23.16H339.5V31.6H330.9V56H320.78V31.6H314.86V23.16Z" fill="#06B6D4"/>
<path d="M21.92 2.24C25.0933 2.24 27.8533 2.6 30.2 3.32C32.5733 4.01333 34.4533 4.76 35.84 5.56C37.2533 6.36 38.1067 6.88 38.4 7.12L33.52 15.24C33.0933 14.8933 32.36 14.4133 31.32 13.8C30.3067 13.16 29.08 12.6 27.64 12.12C26.2 11.6133 24.64 11.36 22.96 11.36C20.5333 11.36 18.5867 11.8267 17.12 12.76C15.68 13.6667 14.96 14.9867 14.96 16.72C14.96 17.8933 15.3467 18.9467 16.12 19.88C16.8933 20.7867 18.0267 21.64 19.52 22.44C21.04 23.24 22.8933 24.08 25.08 24.96C27 25.7067 28.8267 26.5733 30.56 27.56C32.32 28.5467 33.88 29.7067 35.24 31.04C36.6267 32.3733 37.72 33.92 38.52 35.68C39.3467 37.44 39.76 39.4533 39.76 41.72C39.76 44.2533 39.24 46.4667 38.2 48.36C37.1867 50.2533 35.7733 51.84 33.96 53.12C32.1733 54.4 30.12 55.36 27.8 56C25.48 56.64 23.04 56.96 20.48 56.96C17.0133 56.96 13.8933 56.56 11.12 55.76C8.37333 54.9333 6.14667 54.0533 4.44 53.12C2.73333 52.1867 1.73333 51.5867 1.44 51.32L6.56 42.88C6.88 43.12 7.48 43.5067 8.36 44.04C9.26667 44.5733 10.36 45.12 11.64 45.68C12.9467 46.24 14.36 46.72 15.88 47.12C17.4267 47.52 19 47.72 20.6 47.72C23.48 47.72 25.6533 47.12 27.12 45.92C28.5867 44.72 29.32 43.16 29.32 41.24C29.32 39.8 28.8533 38.5333 27.92 37.44C26.9867 36.3467 25.6667 35.3467 23.96 34.44C22.28 33.5067 20.2667 32.56 17.92 31.6C15.5733 30.6133 13.3867 29.4667 11.36 28.16C9.36 26.8267 7.74667 25.2 6.52 23.28C5.29333 21.3333 4.68 18.9467 4.68 16.12C4.68 13.32 5.46667 10.88 7.04 8.8C8.64 6.72 10.7467 5.10666 13.36 3.96C16 2.81333 18.8533 2.24 21.92 2.24ZM39.1081 23.16H45.0281V9.68H55.1081V23.16H62.8681V31.6H55.1081V43.48C55.1081 45.0533 55.3615 46.28 55.8681 47.16C56.3748 48.0133 57.1748 48.44 58.2681 48.44C59.0948 48.44 59.7748 48.28 60.3081 47.96C60.8415 47.6133 61.1615 47.3733 61.2681 47.24L64.8681 54.52C64.7081 54.68 64.1881 54.96 63.3081 55.36C62.4548 55.76 61.3481 56.12 59.9881 56.44C58.6548 56.7867 57.1481 56.96 55.4681 56.96C52.4548 56.96 49.9615 56.0933 47.9881 54.36C46.0148 52.6 45.0281 49.88 45.0281 46.2V31.6H39.1081V23.16ZM71.915 41.84C71.995 43.3333 72.395 44.6667 73.115 45.84C73.835 47.0133 74.875 47.9333 76.235 48.6C77.6217 49.2667 79.275 49.6 81.195 49.6C82.9283 49.6 84.4483 49.3867 85.755 48.96C87.0883 48.5333 88.2083 48.0133 89.115 47.4C90.0483 46.76 90.7417 46.1467 91.195 45.56L95.395 51.8C94.6483 52.7333 93.6483 53.6 92.395 54.4C91.1683 55.1733 89.595 55.7867 87.675 56.24C85.7817 56.72 83.4083 56.96 80.555 56.96C76.955 56.96 73.795 56.2533 71.075 54.84C68.355 53.4267 66.235 51.3867 64.715 48.72C63.195 46.0533 62.435 42.88 62.435 39.2C62.435 36 63.115 33.12 64.475 30.56C65.835 27.9733 67.8083 25.9333 70.395 24.44C73.0083 22.9467 76.1417 22.2 79.795 22.2C83.235 22.2 86.2083 22.8667 88.715 24.2C91.2483 25.5067 93.2083 27.4267 94.595 29.96C95.9817 32.4933 96.675 35.5867 96.675 39.24C96.675 39.4533 96.6617 39.8933 96.635 40.56C96.635 41.2 96.6083 41.6267 96.555 41.84H71.915ZM87.155 35.56C87.1283 34.7067 86.8617 33.7867 86.355 32.8C85.875 31.8133 85.115 30.9733 84.075 30.28C83.035 29.5867 81.6483 29.24 79.915 29.24C78.1817 29.24 76.755 29.5733 75.635 30.24C74.5417 30.9067 73.715 31.7333 73.155 32.72C72.595 33.68 72.275 34.6267 72.195 35.56H87.155ZM108.176 56H97.9756V0.959998H108.176V56ZM121.482 56H111.282V0.959998H121.482V56ZM150.348 56V50.28C150.108 50.8667 149.495 51.6933 148.508 52.76C147.521 53.8267 146.188 54.8 144.508 55.68C142.855 56.5333 140.908 56.96 138.668 56.96C135.521 56.96 132.735 56.2133 130.308 54.72C127.881 53.2 125.975 51.1333 124.588 48.52C123.228 45.88 122.548 42.9067 122.548 39.6C122.548 36.2933 123.228 33.3333 124.588 30.72C125.975 28.08 127.881 26 130.308 24.48C132.735 22.96 135.521 22.2 138.668 22.2C140.855 22.2 142.748 22.5733 144.348 23.32C145.975 24.04 147.281 24.8933 148.268 25.88C149.281 26.84 149.935 27.7067 150.228 28.48V23.16H160.308V56H150.348ZM132.508 39.6C132.508 41.44 132.921 43.0667 133.748 44.48C134.575 45.8667 135.668 46.9467 137.028 47.72C138.388 48.4933 139.868 48.88 141.468 48.88C143.148 48.88 144.641 48.4933 145.948 47.72C147.255 46.92 148.281 45.8267 149.028 44.44C149.801 43.0267 150.188 41.4133 150.188 39.6C150.188 37.7867 149.801 36.1867 149.028 34.8C148.281 33.3867 147.255 32.28 145.948 31.48C144.641 30.68 143.148 30.28 141.468 30.28C139.868 30.28 138.388 30.68 137.028 31.48C135.668 32.2533 134.575 33.3467 133.748 34.76C132.921 36.1467 132.508 37.76 132.508 39.6ZM172.529 56H162.369V23.16H172.529V28.48H172.329C172.515 27.84 173.022 27.0267 173.849 26.04C174.702 25.0533 175.875 24.1733 177.369 23.4C178.862 22.6 180.662 22.2 182.769 22.2C184.289 22.2 185.662 22.4267 186.889 22.88C188.142 23.3067 189.035 23.7333 189.569 24.16L185.569 32.48C185.222 32.0533 184.569 31.6133 183.609 31.16C182.675 30.7067 181.502 30.48 180.089 30.48C178.409 30.48 177.009 30.9467 175.889 31.88C174.769 32.7867 173.929 33.9067 173.369 35.24C172.809 36.5467 172.529 37.7733 172.529 38.92V56Z" fill="#E4E2DD"/>
</svg>
